<?xml version="1.0" encoding="utf-8"?>
<!-- Generator: Adobe Illustrator 25.3.0, SVG Export Plug-In . SVG Version: 6.00 Build 0)  -->
<svg version="1.1" id="Capa_1" xmlns="http://www.w3.org/2000/svg" xmlns:xlink="http://www.w3.org/1999/xlink" x="0px" y="0px"
	 viewBox="0 0 190 80" style="enable-background:new 0 0 190 80;" xml:space="preserve">
<style type="text/css">
	.st0{fill:#1D1D1B;}
	.st1{clip-path:url(#SVGID_2_);fill:url(#SVGID_3_);}
	.st2{clip-path:url(#SVGID_2_);fill:url(#SVGID_4_);}
	.st3{clip-path:url(#SVGID_2_);fill:url(#SVGID_5_);}
	.st4{clip-path:url(#SVGID_2_);fill:url(#SVGID_6_);}
	.st5{fill:#F9F9F9;}
	.st6{fill:#FCFCFC;}
</style>
<g>
	<path class="st0" d="M183.7,61.2c0,4.3-3.5,7.8-7.8,7.8H14.1c-4.3,0-7.8-3.5-7.8-7.8V18.8c0-4.3,3.5-7.8,7.8-7.8h161.7
		c4.3,0,7.8,3.5,7.8,7.8V61.2z"/>
	<g id="PLAY_1_">
		<defs>
			<path id="SVGID_1_" d="M44.7,36.5l-8-4.6c0,0-14.6-8.4-15.4-8.9c-0.9-0.5-1.7-0.2-1.7,0.8c0,1.7,0,18,0,18s0,17.6,0,18.3
				c0,0.8,0.6,1.1,1.4,0.7c0.7-0.4,15.8-9.1,15.8-9.1l8-4.6c0,0,6.8-3.9,7.7-4.4c0.9-0.5,0.8-1.2,0.1-1.6
				C51.7,40.6,44.7,36.5,44.7,36.5z"/>
		</defs>
		<clipPath id="SVGID_2_">
			<use xlink:href="#SVGID_1_"  style="overflow:visible;"/>
		</clipPath>
		<linearGradient id="SVGID_3_" gradientUnits="userSpaceOnUse" x1="29.5021" y1="22.1537" x2="29.5021" y2="61.4586">
			<stop  offset="0" style="stop-color:#207AB0"/>
			<stop  offset="0.3206" style="stop-color:#4A98B5"/>
			<stop  offset="0.7782" style="stop-color:#81C0BB"/>
			<stop  offset="1" style="stop-color:#97CFBE"/>
		</linearGradient>
		<polygon class="st1" points="19.6,22.2 19.6,41.8 19.6,61.5 39.4,41.8 		"/>
		<linearGradient id="SVGID_4_" gradientUnits="userSpaceOnUse" x1="19.5923" y1="31.9086" x2="44.7355" y2="31.9086">
			<stop  offset="0" style="stop-color:#59BBAA"/>
			<stop  offset="1" style="stop-color:#E6E89A"/>
		</linearGradient>
		<polygon class="st2" points="44.7,36.5 36.7,31.9 19.6,22 19.6,22.2 39.4,41.8 		"/>
		<linearGradient id="SVGID_5_" gradientUnits="userSpaceOnUse" x1="32.1637" y1="41.8065" x2="32.1637" y2="61.6016">
			<stop  offset="0" style="stop-color:#E43332"/>
			<stop  offset="0.1636" style="stop-color:#D43643"/>
			<stop  offset="0.7271" style="stop-color:#A23E7A"/>
			<stop  offset="1" style="stop-color:#8E4190"/>
		</linearGradient>
		<polygon class="st3" points="19.6,61.5 19.6,61.6 36.7,51.7 44.7,47.1 39.4,41.8 		"/>
		<linearGradient id="SVGID_6_" gradientUnits="userSpaceOnUse" x1="46.6452" y1="36.5278" x2="46.6452" y2="47.0845">
			<stop  offset="0" style="stop-color:#F08779"/>
			<stop  offset="0.6326" style="stop-color:#F8B474"/>
			<stop  offset="1" style="stop-color:#FCCA72"/>
		</linearGradient>
		<polygon class="st4" points="44.7,36.5 39.4,41.8 44.7,47.1 53.9,41.8 		"/>
	</g>
	<g>
		<path class="st5" d="M144.4,49.5c-0.7,0-1.4-0.1-2-0.4c-0.6-0.3-1.1-0.7-1.5-1.3h-0.1c0.1,0.7,0.1,1.3,0.1,1.9v4.7h-1.7V37.9h1.4
			l0.2,1.6h0.1c0.4-0.6,1-1.1,1.6-1.4c0.6-0.3,1.3-0.4,2-0.4c1.5,0,2.7,0.5,3.5,1.6c0.8,1,1.2,2.5,1.2,4.4c0,1.9-0.4,3.3-1.3,4.4
			C147,49,145.9,49.5,144.4,49.5z M144.1,39.1c-1.2,0-2,0.3-2.5,1c-0.5,0.6-0.8,1.7-0.8,3.1v0.4c0,1.6,0.3,2.8,0.8,3.4
			c0.5,0.7,1.4,1,2.6,1c1,0,1.8-0.4,2.3-1.2c0.6-0.8,0.8-1.9,0.8-3.3c0-1.4-0.3-2.5-0.8-3.3C145.9,39.5,145.1,39.1,144.1,39.1z"/>
		<path class="st5" d="M153.1,49.3h-1.7V33.1h1.7V49.3z"/>
		<path class="st5" d="M163.1,49.3l-0.3-1.6h-0.1c-0.6,0.7-1.1,1.2-1.7,1.5c-0.6,0.3-1.3,0.4-2.1,0.4c-1.1,0-2-0.3-2.7-0.9
			s-1-1.4-1-2.5c0-2.3,1.8-3.5,5.5-3.6l1.9-0.1v-0.7c0-0.9-0.2-1.6-0.6-2c-0.4-0.4-1-0.6-1.9-0.6c-1,0-2,0.3-3.2,0.9l-0.5-1.3
			c0.6-0.3,1.2-0.5,1.9-0.7c0.7-0.2,1.3-0.3,2-0.3c1.4,0,2.4,0.3,3,0.9c0.7,0.6,1,1.6,1,2.9v7.8H163.1z M159.2,48.1
			c1.1,0,1.9-0.3,2.5-0.9c0.6-0.6,0.9-1.4,0.9-2.5v-1l-1.7,0.1c-1.4,0-2.4,0.3-3,0.6c-0.6,0.4-0.9,1-0.9,1.8c0,0.6,0.2,1.1,0.6,1.4
			C158,47.9,158.5,48.1,159.2,48.1z"/>
		<path class="st5" d="M165.4,37.9h1.9l2.5,6.5c0.5,1.5,0.9,2.6,1,3.2h0.1c0.1-0.4,0.3-1,0.6-1.8c0.3-0.9,1.2-3.5,2.8-7.9h1.9
			l-4.9,13c-0.5,1.3-1.1,2.2-1.7,2.7c-0.6,0.5-1.4,0.8-2.4,0.8c-0.5,0-1.1-0.1-1.6-0.2v-1.4c0.4,0.1,0.8,0.1,1.3,0.1
			c1.2,0,2-0.7,2.5-2l0.6-1.6L165.4,37.9z"/>
	</g>
	<g>
		<path class="st5" d="M112.3,38.9c0.5,0.5,1.7,1.4,1.7,3.2c0,1.8-1,2.6-2,3.4c-0.3,0.3-0.7,0.6-0.7,1.2c0,0.5,0.4,0.8,0.6,1
			l0.9,0.7c1.1,0.9,2,1.7,2,3.3c0,2.2-2.2,4.5-6.3,4.5c-3.5,0-5.1-1.6-5.1-3.4c0-0.9,0.4-2.1,1.8-2.9c1.5-0.9,3.5-1,4.6-1.1
			c-0.3-0.4-0.7-0.9-0.7-1.6c0-0.4,0.1-0.6,0.2-0.9c-0.3,0-0.5,0-0.8,0c-2.5,0-4-1.9-4-3.8c0-1.1,0.5-2.3,1.5-3.2
			c1.4-1.1,3-1.3,4.3-1.3h4.9l-1.5,0.9H112.3z M110.6,49.5c-0.2,0-0.3,0-0.5,0c-0.2,0-1.5,0-2.5,0.4c-0.5,0.2-2.1,0.8-2.1,2.5
			c0,1.7,1.7,2.9,4.2,2.9c2.3,0,3.5-1.1,3.5-2.6C113.2,51.5,112.4,50.8,110.6,49.5z M111.3,45c0.5-0.6,0.6-1.3,0.6-1.7
			c0-1.7-1-4.4-3-4.4c-0.6,0-1.3,0.3-1.7,0.8c-0.4,0.5-0.5,1.1-0.5,1.8c0,1.6,0.9,4.3,3,4.3C110.3,45.7,110.9,45.4,111.3,45z"/>
		<path class="st5" d="M97.2,49.1c-3.8,0-5.8-3-5.8-5.6c0-3.1,2.6-5.8,6.2-5.8c3.5,0,5.7,2.7,5.7,5.6
			C103.3,46.2,101.1,49.1,97.2,49.1z M100.2,47.2c0.6-0.8,0.7-1.7,0.7-2.7c0-2.1-1-6.1-4-6.1c-0.8,0-1.6,0.3-2.1,0.8
			c-0.9,0.8-1.1,1.9-1.1,2.9c0,2.4,1.2,6.3,4.1,6.3C98.7,48.4,99.7,48,100.2,47.2z"/>
		<path class="st5" d="M84.3,49.1c-3.8,0-5.8-3-5.8-5.6c0-3.1,2.6-5.8,6.2-5.8c3.5,0,5.7,2.7,5.7,5.6C90.4,46.2,88.2,49.1,84.3,49.1
			z M87.3,47.2c0.6-0.8,0.7-1.7,0.7-2.7c0-2.1-1-6.1-4-6.1c-0.8,0-1.6,0.3-2.1,0.8c-0.9,0.8-1.1,1.9-1.1,2.9c0,2.4,1.2,6.3,4.1,6.3
			C85.8,48.4,86.7,48,87.3,47.2z"/>
		<path class="st5" d="M76.7,48.8l-3.4,0.8c-1.4,0.2-2.6,0.4-4,0.4c-6.6,0-9.1-4.9-9.1-8.7c0-4.7,3.6-9,9.7-9c1.3,0,2.5,0.2,3.7,0.5
			c1.8,0.5,2.6,1.1,3.2,1.5l-2,1.9l-0.8,0.2l0.6-1c-0.8-0.8-2.3-2.3-5.1-2.3c-3.8,0-6.6,2.9-6.6,7.1c0,4.5,3.3,8.8,8.5,8.8
			c1.5,0,2.3-0.3,3-0.6v-3.9l-3.6,0.2l1.9-1h5.1L77,44.3c-0.2,0.1-0.2,0.2-0.2,0.4c0,0.2,0,0.9,0,1.2V48.8z"/>
		<path class="st5" d="M119.9,48.1c-0.8-0.1-1-0.2-1-1.2v-0.3V33.3c0-0.1,0-0.1,0-0.2c0.1-0.8,0.3-1,1.1-1.4h-3.4l-1.8,0.9h1.8v0
			l0,0v14v0.8c0,0.5-0.1,0.6-0.6,1.3h4.2l0.9-0.5C120.7,48.2,120.3,48.1,119.9,48.1z"/>
		<path class="st5" d="M129.6,48.3c-0.3,0.1-0.5,0.3-0.8,0.4c-0.8,0.4-1.6,0.5-2.3,0.5c-0.8,0-2,0-3.2-0.9c-1.7-1.2-2.4-3.2-2.4-5
			c0-3.7,3-5.5,5.5-5.5c0.9,0,1.7,0.2,2.5,0.7c1.2,0.8,1.5,1.8,1.7,2.4l-5.6,2.3l-1.8,0.1c0.6,3,2.6,4.8,4.9,4.8
			c1.2,0,2.1-0.4,2.9-0.8L129.6,48.3z M127.4,41.2c0.5-0.2,0.7-0.3,0.7-0.6c0-1-1.1-2-2.4-2c-1,0-2.7,0.7-2.7,3.3
			c0,0.4,0,0.8,0.1,1.3L127.4,41.2z"/>
		<g>
			<path class="st5" d="M132,37.9v1.6h-0.2v-1.6h-0.5v-0.2h1.2v0.2H132z"/>
			<path class="st5" d="M134.1,39.5v-1.6h0l-0.5,1.6h-0.1l-0.5-1.6h0v1.6h-0.2v-1.7h0.3l0.4,1.4h0l0.4-1.4h0.3v1.7H134.1z"/>
		</g>
	</g>
	<g>
		<path class="st6" d="M64.9,27.6h-1.2c0-0.2-0.1-0.6-0.3-1.4h-1.7c-0.2,0.8-0.4,1.2-0.4,1.4h-1.1c0-0.1,0.3-0.9,0.9-2.4
			c0.6-1.5,0.9-2.3,0.9-2.5h1.4c0,0.1,0.3,1,0.8,2.4C64.6,26.7,64.9,27.5,64.9,27.6z M63.2,25.5c-0.4-1.3-0.6-2-0.6-2.1h-0.1
			c0,0.1-0.2,0.8-0.7,2.1H63.2z"/>
		<path class="st6" d="M69.7,27.6h-0.9c0-0.1-0.3-0.6-1-1.6c-0.7-1-1.1-1.7-1.2-2.1h-0.1c0.1,0.5,0.1,1,0.1,1.5c0,0.6,0,1.4,0.1,2.2
			h-0.9c0-0.8,0.1-1.6,0.1-2.5c0-0.9,0-1.7-0.1-2.3h1.1c0,0.1,0.3,0.7,0.9,1.6c0.7,1,1,1.6,1.1,2h0.1c-0.1-0.6-0.1-1.1-0.1-1.5
			c0-0.7,0-1.4-0.1-2.1h0.9c0,0.6-0.1,1.4-0.1,2.3C69.6,26,69.7,26.9,69.7,27.6z"/>
		<path class="st6" d="M75.1,25c0,0.7-0.2,1.3-0.7,1.8c-0.5,0.5-1.1,0.8-1.9,0.8c-0.4,0-0.9,0-1.5,0c0-0.8,0-1.6,0-2.5
			c0-0.9,0-1.7,0-2.3h0.7c0.1,0,0.3,0,0.5,0c0.2,0,0.3,0,0.4,0c0.9,0,1.5,0.2,2,0.7C74.9,23.9,75.1,24.4,75.1,25z M74.1,25.2
			c0-0.5-0.1-0.9-0.4-1.2c-0.3-0.3-0.7-0.5-1.3-0.5c-0.1,0-0.3,0-0.4,0c0,0.5,0,1,0,1.6c0,0.6,0,1.2,0,1.8c0.2,0,0.3,0,0.5,0
			c0.5,0,0.9-0.2,1.2-0.5C74,26.1,74.1,25.7,74.1,25.2z"/>
		<path class="st6" d="M80.1,27.6H79c-0.3-0.9-0.5-1.4-0.7-1.6c-0.2-0.2-0.4-0.3-0.7-0.3c-0.1,0-0.3,0-0.4,0c0,0.6,0,1.3,0,1.9h-1
			c0-0.8,0-1.6,0-2.5c0-0.9,0-1.7,0-2.3h0.6c0.1,0,0.2,0,0.5,0c0.2,0,0.5,0,0.7,0c1.1,0,1.7,0.4,1.7,1.2c0,0.6-0.3,1-1,1.3v0.1
			c0.3,0.1,0.5,0.3,0.7,0.6C79.5,26.2,79.8,26.8,80.1,27.6z M78.7,24.2c0-0.5-0.3-0.7-1-0.7c-0.2,0-0.4,0-0.6,0.1c0,0.4,0,0.9,0,1.5
			c0.1,0,0.3,0,0.3,0C78.3,25,78.7,24.8,78.7,24.2z"/>
		<path class="st6" d="M85.4,25.1c0,0.8-0.2,1.4-0.7,1.9c-0.5,0.5-1,0.8-1.7,0.8c-0.7,0-1.2-0.2-1.6-0.7c-0.4-0.5-0.7-1-0.7-1.8
			c0-0.8,0.2-1.4,0.7-1.9c0.5-0.5,1-0.8,1.7-0.8c0.7,0,1.2,0.2,1.6,0.7C85.2,23.8,85.4,24.4,85.4,25.1z M84.4,25.2
			c0-0.5-0.1-0.9-0.4-1.3c-0.3-0.3-0.6-0.5-1-0.5c-0.4,0-0.7,0.2-0.9,0.5c-0.3,0.3-0.4,0.7-0.4,1.2c0,0.5,0.1,0.9,0.4,1.3
			c0.3,0.3,0.6,0.5,1,0.5c0.4,0,0.7-0.2,0.9-0.5C84.3,26.1,84.4,25.7,84.4,25.2z"/>
		<path class="st6" d="M87.5,27.6h-1.1c0-0.8,0-1.6,0-2.5c0-0.9,0-1.7,0-2.3h1.1c0,0.6,0,1.4,0,2.3C87.5,26,87.5,26.9,87.5,27.6z"/>
		<path class="st6" d="M92.9,25c0,0.7-0.2,1.3-0.7,1.8c-0.5,0.5-1.1,0.8-1.9,0.8c-0.4,0-0.9,0-1.5,0c0-0.8,0-1.6,0-2.5
			c0-0.9,0-1.7,0-2.3h0.7c0.1,0,0.3,0,0.5,0c0.2,0,0.3,0,0.4,0c0.9,0,1.5,0.2,2,0.7C92.7,23.9,92.9,24.4,92.9,25z M91.9,25.2
			c0-0.5-0.1-0.9-0.4-1.2c-0.3-0.3-0.7-0.5-1.3-0.5c-0.1,0-0.3,0-0.4,0c0,0.5,0,1,0,1.6c0,0.6,0,1.2,0,1.8c0.2,0,0.3,0,0.5,0
			c0.5,0,0.9-0.2,1.2-0.5C91.8,26.1,91.9,25.7,91.9,25.2z"/>
		<path class="st6" d="M100.1,27.6h-1.2c0-0.2-0.1-0.6-0.3-1.4h-1.7c-0.2,0.8-0.4,1.2-0.4,1.4h-1.1c0-0.1,0.3-0.9,0.9-2.4
			c0.6-1.5,0.9-2.3,0.9-2.5h1.4c0,0.1,0.3,1,0.8,2.4C99.8,26.7,100.1,27.5,100.1,27.6z M98.4,25.5c-0.4-1.3-0.6-2-0.6-2.1h-0.1
			c0,0.1-0.2,0.8-0.7,2.1H98.4z"/>
		<path class="st6" d="M104.4,24.1c0,0.6-0.2,1-0.7,1.3c-0.4,0.3-1,0.4-1.6,0.4c-0.1,0-0.2,0-0.2,0c0,0.5,0,1.1,0,1.8h-1
			c0-0.7,0-1.6,0-2.5c0-0.9,0-1.7,0-2.3h0.6c0.1,0,0.3,0,0.5,0c0.3,0,0.5,0,0.7,0c0.5,0,0.9,0.1,1.2,0.3
			C104.3,23.3,104.4,23.6,104.4,24.1z M103.5,24.3c0-0.5-0.4-0.8-1.1-0.8c-0.2,0-0.4,0-0.6,0.1c0,0.5,0,1,0,1.6c0.1,0,0.1,0,0.2,0
			C103,25.1,103.5,24.8,103.5,24.3z"/>
		<path class="st6" d="M108.9,24.1c0,0.6-0.2,1-0.7,1.3c-0.4,0.3-1,0.4-1.6,0.4c-0.1,0-0.2,0-0.2,0c0,0.5,0,1.1,0,1.8h-1
			c0-0.7,0-1.6,0-2.5c0-0.9,0-1.7,0-2.3h0.6c0.1,0,0.3,0,0.5,0c0.3,0,0.5,0,0.7,0c0.5,0,0.9,0.1,1.2,0.3
			C108.7,23.3,108.9,23.6,108.9,24.1z M108,24.3c0-0.5-0.4-0.8-1.1-0.8c-0.2,0-0.4,0-0.6,0.1c0,0.5,0,1,0,1.6c0.1,0,0.1,0,0.2,0
			C107.5,25.1,108,24.8,108,24.3z"/>
		<path class="st6" d="M116.2,25.1c0,0.8-0.2,1.4-0.7,1.9c-0.5,0.5-1,0.8-1.7,0.8c-0.7,0-1.2-0.2-1.6-0.7c-0.4-0.5-0.7-1-0.7-1.8
			c0-0.8,0.2-1.4,0.7-1.9c0.5-0.5,1-0.8,1.7-0.8c0.7,0,1.2,0.2,1.6,0.7C116,23.8,116.2,24.4,116.2,25.1z M115.2,25.2
			c0-0.5-0.1-0.9-0.4-1.3c-0.3-0.3-0.6-0.5-1-0.5c-0.4,0-0.7,0.2-0.9,0.5c-0.3,0.3-0.4,0.7-0.4,1.2c0,0.5,0.1,0.9,0.4,1.3
			c0.3,0.3,0.6,0.5,1,0.5c0.4,0,0.7-0.2,0.9-0.5C115.1,26.1,115.2,25.7,115.2,25.2z"/>
		<path class="st6" d="M121.3,27.6h-0.9c0-0.1-0.3-0.6-1-1.6c-0.7-1-1.1-1.7-1.2-2.1H118c0.1,0.5,0.1,1,0.1,1.5c0,0.6,0,1.4,0.1,2.2
			h-0.9c0-0.8,0.1-1.6,0.1-2.5c0-0.9,0-1.7-0.1-2.3h1.1c0,0.1,0.3,0.7,0.9,1.6c0.7,1,1,1.6,1.1,2h0.1c-0.1-0.6-0.1-1.1-0.1-1.5
			c0-0.7,0-1.4-0.1-2.1h0.9c0,0.6-0.1,1.4-0.1,2.3C121.2,26,121.2,26.9,121.3,27.6z"/>
	</g>
</g>
</svg>
